<?xml version="1.0" encoding="utf-8"?>
<!-- Generator: Adobe Illustrator 14.0.0, SVG Export Plug-In . SVG Version: 6.00 Build 43363)  -->
<!DOCTYPE svg PUBLIC "-//W3C//DTD SVG 1.1//EN" "http://www.w3.org/Graphics/SVG/1.1/DTD/svg11.dtd">
<svg version="1.1" 
	 xmlns="http://www.w3.org/2000/svg" 
	 xmlns:xlink="http://www.w3.org/1999/xlink" 
	 xml:space="preserve"
	 x="0px" y="0px"
	 viewBox="0 0 280 80"
	 height="23%"
	 preserveAspectRatio="xMinYMax meet">
    <title>Forlife</title>
    <g>
        <path d="M0,0h33.951v57.366h32.391V80H0V0z"/>
        <path d="M124.707,0h72.064v22.504h-38.112v11.577h32.909v18.992h-32.909V80h-33.952V0z"/>
        <path d="M205.725,0h72.715v22.634h-38.765v7.675h32.521v18.992h-32.521v8.065H280V80h-74.275V0z"/>
        <path d="M93.304,44.273c2.898,0,3.647-0.934,3.647-2.821c0.001-1.868-0.748-2.802-3.647-2.802c-2.938,0-3.726,0.913-3.726,2.823
		C89.578,43.382,90.367,44.273,93.304,44.273z"/>
        <path d="M91.234,24.066c-1.242,0-1.715,0.664-1.715,2.159v2.573h3.411v-2.386C92.93,24.794,92.595,24.066,91.234,24.066z"/>
        <path d="M77.748,0v80h33.951V0H77.748z M87.212,25.622c0-3.859,1.36-5.374,3.963-5.374c2.011,0,3.037,1.142,3.549,2.78
		c0.236-0.517,0.65-0.932,1.459-1.346L99.337,20v4.066l-3.214,1.661c-0.769,0.435-1.045,0.747-1.045,1.619v1.452h4.259v3.942H87.212
		V25.622z M93.284,34.646c4.377,0,6.25,2.656,6.25,6.827c0.001,4.15-1.872,6.807-6.25,6.807c-4.396,0-6.309-2.678-6.309-6.827
		C86.975,37.281,88.888,34.646,93.284,34.646z M102.472,60h-15.26V49.459h2.622v6.577h3.154v-5.831h2.268v5.831h7.216V60z"/>
    </g>
</svg>
