<?xml version="1.0" encoding="utf-8"?>

<!-- The icon can be used freely in both personal and commercial projects with no attribution required, but always appreciated. 
You may NOT sub-license, resell, rent, redistribute or otherwise transfer the icon without express written permission from iconmonstr.com -->

<!DOCTYPE svg PUBLIC "-//W3C//DTD SVG 1.1//EN" "http://www.w3.org/Graphics/SVG/1.1/DTD/svg11.dtd">
<svg version="1.1" xmlns="http://www.w3.org/2000/svg" xmlns:xlink="http://www.w3.org/1999/xlink" x="0px" y="0px"
	 width="512px" height="512px" viewBox="0 0 512 512" enable-background="new 0 0 512 512" xml:space="preserve">
<path id="banknote-multi-10-icon" d="M407.546,233.16c-30.074,0-54.453,11.84-54.453,26.445c0,14.606,24.379,26.445,54.453,26.445
	S462,274.212,462,259.605C462,245,437.62,233.16,407.546,233.16z M411.266,273.131l-0.002,3.542l-6.903-0.012v-3.169
	c-3.311-0.213-7.686-1.102-10.909-2.41l2.287-5.837c2.986,0.863,7.104,1.906,10.658,1.912c0.784,0.002,1.542-0.048,2.253-0.16
	c3.445-0.546,4.314-2.815,0.26-4.104c-3.423-1.136-15.208-2.336-15.206-9.569c0-2.997,3.062-7.112,10.664-8.316l0.001-3.595
	l6.904,0.012l-0.001,3.298c2.957,0.155,5.975,0.561,9.458,1.365c-0.347,1.118-1.854,5.965-1.854,5.965
	c-2.243-0.563-5.81-1.52-9.341-1.524c-0.258-0.001-0.517,0.003-0.773,0.014c-4.666,0.185-5.002,2.684-1.856,3.844
	c6.451,2.153,15.795,3.989,15.794,10.377C422.707,269.698,417.468,272.503,411.266,273.131z M449.514,287.439
	c5.043-2.449,9.229-5.311,12.486-8.527v10.523c0,14.605-24.38,26.446-54.454,26.446s-54.453-11.841-54.453-26.446v-10.523
	c3.259,3.217,7.443,6.078,12.485,8.527c11.342,5.509,26.248,8.543,41.968,8.543C423.267,295.982,438.172,292.948,449.514,287.439z
	 M449.514,347.099c5.043-2.447,9.229-5.31,12.486-8.526v10.714c0,14.605-24.38,26.446-54.454,26.446s-54.453-11.841-54.453-26.446
	v-10.714c3.259,3.217,7.443,6.079,12.485,8.526c11.342,5.511,26.248,8.543,41.968,8.543
	C423.267,355.642,438.172,352.609,449.514,347.099z M449.514,317.27c5.043-2.448,9.229-5.312,12.486-8.528v10.524
	c0,14.605-24.38,26.445-54.454,26.445s-54.453-11.84-54.453-26.445v-10.524c3.259,3.217,7.443,6.08,12.485,8.528
	c11.342,5.509,26.248,8.543,41.968,8.543C423.267,325.812,438.172,322.778,449.514,317.27z M375.579,161.959H75.69v158.858H50
	v-184.55h325.579V161.959z M333.104,349.814H101.379v-166.59h301.437v30.03c-15.965,0.572-33.334,4.132-46.979,12.06
	c-4.521-5.008-8.355-10.478-10.93-15.859H159.288c-6.055,12.656-19.035,25.827-31.679,32.23v49.666
	c12.644,6.404,25.624,19.574,31.679,32.231h173.805v25.703C333.093,349.463,333.101,349.639,333.104,349.814z M205.857,266.52
	c0,25.537,20.702,46.239,46.239,46.239s46.239-20.702,46.239-46.239c0-25.538-20.702-46.241-46.239-46.241
	S205.857,240.981,205.857,266.52z M268.322,245.016c-0.429,1.87-2.282,9.992-2.282,9.992c-2.957-1.006-7.79-2.765-12.432-2.506
	c-5.737,0.322-6.146,4.511-2.281,6.444c7.931,3.585,19.419,6.638,19.419,17.335c0.01,8.266-6.43,12.972-14.055,14.044v5.931h-8.482
	v-5.305c-4.072-0.35-9.451-1.823-13.414-4.006l2.808-9.778c4.486,1.747,11.033,3.949,15.875,2.894
	c4.234-0.924,5.3-4.727,0.316-6.874c-4.208-1.89-18.694-3.864-18.694-15.979c0-5.02,3.762-11.917,13.109-13.958v-6.019h8.482v5.524
	C260.328,243.005,264.037,243.676,268.322,245.016z"/>
</svg>
