<?xml version="1.0" encoding="utf-8"?>
<!-- Generator: Adobe Illustrator 14.0.0, SVG Export Plug-In . SVG Version: 6.00 Build 43363)  -->
<!DOCTYPE svg PUBLIC "-//W3C//DTD SVG 1.1//EN" "http://www.w3.org/Graphics/SVG/1.1/DTD/svg11.dtd">
<svg version="1.1" id="Layer_1" xmlns="http://www.w3.org/2000/svg" xmlns:xlink="http://www.w3.org/1999/xlink" x="0px" y="0px"
	 width="512px" height="512px" viewBox="0 0 512 512" enable-background="new 0 0 512 512" xml:space="preserve">
<g>
	<path d="M346.112,144.39c14.169,125.719,152.792,18.74,164.396-58.708C530.852-49.922,336.3,25.724,346.112,144.39z"/>
	<path d="M252.134,144.39c68.916,1.454,73.29-122.25,5.905-135.031C197.419,28.291,174.794,142.822,252.134,144.39z"/>
	<path d="M149.336,176.735c34.744-34.755,16.191-82.246-32.277-108.692C38.623,65.838,101.335,224.703,149.336,176.735z"/>
	<path d="M17.268,173.791c-42.286,18.397,1.537,88.945,41.11,82.193C117.884,245.859,64.353,171.599,17.268,173.791z"/>
	<path d="M252.134,185.531c-217.85-22.948-225.668,320.214,0,317.088C469.496,499.641,466.134,169.891,252.134,185.531z"/>
</g>
</svg>
