<?xml version="1.0" encoding="utf-8"?>
<!-- Generator: Adobe Illustrator 14.0.0, SVG Export Plug-In . SVG Version: 6.00 Build 43363)  -->
<!DOCTYPE svg PUBLIC "-//W3C//DTD SVG 1.1//EN" "http://www.w3.org/Graphics/SVG/1.1/DTD/svg11.dtd">
<svg version="1.1" id="Layer_1" xmlns="http://www.w3.org/2000/svg" xmlns:xlink="http://www.w3.org/1999/xlink" x="0px" y="0px"
	 width="512px" height="512px" viewBox="0 0 512 512" enable-background="new 0 0 512 512" xml:space="preserve">
<path id="magnifier-4-icon" d="M495.025,427.899L388.85,321.726c20.579-32.429,32.511-70.859,32.511-112.027
	C421.361,94.07,327.29,0,211.66,0C96.031,0,1.962,94.07,1.962,209.698c0,115.628,94.068,209.699,209.698,209.699
	c39.125,0,75.775-10.782,107.156-29.515l107.111,107.115C471.63,542.7,540.766,473.642,495.025,427.899z M66.985,209.698
	c0-79.776,64.898-144.679,144.676-144.679s144.68,64.902,144.68,144.679c0,79.776-64.901,144.68-144.68,144.68
	S66.985,289.474,66.985,209.698z"/>
</svg>
