<?xml version="1.0" encoding="utf-8"?>
<!-- Generator: Adobe Illustrator 14.0.0, SVG Export Plug-In . SVG Version: 6.00 Build 43363)  -->
<!DOCTYPE svg PUBLIC "-//W3C//DTD SVG 1.1//EN" "http://www.w3.org/Graphics/SVG/1.1/DTD/svg11.dtd">
<svg version="1.1" id="Layer_1" xmlns="http://www.w3.org/2000/svg" xmlns:xlink="http://www.w3.org/1999/xlink" x="0px" y="0px"
	 width="512px" height="512px" viewBox="0 0 512 512" enable-background="new 0 0 512 512" xml:space="preserve">
<path id="user-2-icon" d="M444.205,411.11c-63.277-14.441-140.325-51.723-117.624-100.264c14.578,23.905,59.754,37.73,94.942,17.07
	c-101.288-25.563,49.791-201.064-82.588-299.442c-48.313-36.089-118.318-36.502-165.87,0
	c-132.379,98.378,18.7,273.88-82.588,299.442c35.189,20.66,80.431,6.214,94.943-17.07c22.701,48.546-54.414,85.837-117.625,100.264
	c-73.371,16.747-67.694,64.653-67.694,99.637h511.795C511.9,475.765,517.577,427.859,444.205,411.11z"/>
</svg>
